# xmcd
#
# Track frame offsets: 
#        150
#        17277
#        31203
#        47788
#        62205
#        76553
#        93743
#        111084
#        127546
#        142424
#        157363
#        189934
#        204286
#        219239
#        234137
#        252187
#        266754
#        283920
#        298642
#        323333
#
# Disc length: 4521 seconds
#
# Revision: 0
# Processed by: cddbd v1.5.2PL0 Copyright (c) Steve Scherf et al.
# Submitted via: ExactAudioCopy v1.0b3
#
DISCID=1311a714
DTITLE=Various Artist - Club Zone Vol. 1 - CD 2
DYEAR=1900
DGENRE=
TTITLE0=Steve Twain Pres. Escape One - Numero Uno (Steve Twain's Late 
TTITLE0=Night Radio Mix)
TTITLE1=Ziggy X - X-Terminate (Short Mix)
TTITLE2=Pulsedriver - The Whistle Song (Radio Mix)
TTITLE3=Discotronic - Tricky Disco (Single Edit)
TTITLE4=Jens O. - Find Your Way (Hands Up Radio Mix)
TTITLE5=Keira Green - All Out Of Love (Rob Mayth Radio Mix)
TTITLE6=Tube Tonic and DJ Shandar - The Secret (Single Edit)
TTITLE7=Melanie Flash - Halfway To Heaven (Radio Edit)
TTITLE8=DJ Dean - If I Could Be You (Neo Cortex Radio Mix)
TTITLE9=Prezioso Feat. Marvin - Survival (DJ Manian and Tune Up! Radio M
TTITLE9=ix)
TTITLE10=D-Jean-D - Follow Me (Original Mix)
TTITLE11=Matt Ricks - Home Again (Radio Edit)
TTITLE12=H2K - Summermelody (89ers Radio Mix)
TTITLE13=Raverdiago - Pupunanny (89ers Radio Mix)
TTITLE14=Apollo Vs. MacKenzie - All I Need 2006 (Megara Vs. DJ Lee Rem
TTITLE14=ix Edit)
TTITLE15=Accuface - Let Your Mind Fly 2007 (Radio Mix)
TTITLE16=Andre Visior - Skyline (Original Radio Edit)
TTITLE17=Blank and Jones - Sound Of Machines (RhythmusRaum Remix Edit)
TTITLE18=Vibekidz - Amazing Woman (Original Club Mix)
TTITLE19=Alchemist Project Vs. Join Forces - The Hottest Stuff (Radio 
TTITLE19=Edit)
EXTD=
EXTT0=
EXTT1=
EXTT2=
EXTT3=
EXTT4=
EXTT5=
EXTT6=
EXTT7=
EXTT8=
EXTT9=
EXTT10=
EXTT11=
EXTT12=
EXTT13=
EXTT14=
EXTT15=
EXTT16=
EXTT17=
EXTT18=
EXTT19=
PLAYORDER=
